<?xml version="1.0" encoding="UTF-8"?><svg id="Layer_2" xmlns="http://www.w3.org/2000/svg" viewBox="0 0 690.63 171.22"><defs><style>.cls-1{fill:#ffa000;}</style></defs><g id="Layer_1-2"><path class="cls-1" d="M.62,53.19c1.04.13,2.08.71,3.15.08.29.36.74.3,1.16.3,0,0,0,0,0,0,.52,0,1.04.02,1.56.02h0s0,0,0,0c.71.39.88.96.8,1.61-.39.43-.79.85-1.18,1.28h0s0,0,0,0c-.44-.08-.95-.05-1.29-.24-1.34-.75-2.14-.1-2.93.67-.2.19-.5.41-.22.68.25.25.59.15.87,0,1.7-.92.58.46.95.8.81-.79,1.93-.62,3.01-.6,0,0,0,0,0,0h0c.37.49.95.91.78,1.58h0c-.42.07-.01,1.4-1.18.47-.43-.35-1.4-.29-1.97.16-.57.45.11.86.2,1.3.22,1.02,1.27,1.25,2.16,1.64,0,0,0,0,0,0h0c.27.32.53.64.8.96,0,0,0,0,0,0-.08,1.57,1.66,1.84,2.72,2.58h0c1,.95.82,1.98.09,2.91-.45.58-.68,1.25-.06,1.56,2.98,1.51,1.25,2.69-.26,3.94-.09.07-.13.18-.19.28-.94.18-1.58.47-.77,1.33.4,1.07.69,2.14.02,3.21h0c-.01.35-.07.72.36.96,0,0,0,0,0,0,0,0,0,0,0,0,0,.1,0,.21.02.31,0,0,0,0,0,0,.04,1.25.35,2.61-1.92,2.88.84.71,1.59.77,2.47.46.47-.16,1.43-.13,1.23.27-.5,1.02,1.61,2.4-.68,3.13-.42.13-.25.59.07.82.84.58,1.32,1.88,2.95.86.77-.48,1.2.18,1.17.74-.01.39-.4.78-.62,1.17,0,0,0,0,0,0,0,0,0,0,0,0-.14.21-.28.43-.41.64-.04.75-.46,1.49,0,2.24,0,0,0,.01-.01.02-.73.98.25,1.57.8,2.25,0,0,0,0,0,0,0,0,0,0,0,0,.78.86,1.56,1.72,2.34,2.57,0,0,0,0,0,0l.78.64h0c.4.53.35,1.47,1.57,1.29,1.88-.27,2.52.61,2.71,1.93,0,0,0,0,0,0-.46.83-.8,1.66.75,1.93.82.14.79.49.62,1.03-.16.5-.15,1.03-.21,1.55-.44.24-.38.61-.37.97.59.36,1.36.58,1.52,1.29h0c-.38.11-.76.22-1.14.33,0,0,0,0,0,0-.52.01-1.09-.09-1.54.06-.83.29-1.68.78-1.8,1.54-.11.69.93.57,1.44.84.32.17.95.3.82.58-.51,1.18.41,2.06.78,3.06.6,1.64-1.22,2.96-.87,4.56-.06.34.04.73-.41.96-.13.13-.19.25-.23.36-.19.31-.39.61-.58.92-.78.14-1.52.34-1.94.97,0,0,0,0,0,0-.76.12-1.52.22-2.26.36-.37.07-.9.38-.48.62.94.53.86,1.88,2.34,1.93,0,0,0,0,0,0,1.31,1.34,1.25,1.49-.89,2.35-.11.04-.18.14-.28.21-1.4.39.51,1.2-.33,1.69-2.26,1.3-.08,1.21.72,1.54h0c0,.1.01.21.01.31-.23.77-.12,1.39.73,1.63.01.17,0,.33-.04.5-.89.35-2.22.4-1.08,1.76-1.2,2.08-.97,2.86,1.13,3.87.61.96,1.18,1.89-.49,2.6-.33.14-.45.61-.67.93h.01s0,0-.01,0c-.41.18-.8.36-.38.81.42.45.03.63-.38.81,0,0,0,0,0,0,0,0,0,0,0,0-.44.71-1.97.53-1.96,1.61,0,0,0,0,0,0,0,0,0,0,0,0,0,.1,0,.21,0,.31.13.17.16.34.17.52-.05-.17-.1-.34-.17-.52-.08.49.23,1.15-.72,1.28-1.06.14-1.31.9-1.47,1.51-.22.87-.12,1.79-.17,2.7-.21.45-.68.57-1.19.7-1.54.42-1.28,1.06-.11,1.55.92.38,1.05.89.73,1.55-.53,1.06-.3,1.81,1.24,2.07q-1.49,1.15-.29,2.2h0c.29.42,1.4.5.78,1.29,0,0,0,0,0,0,0,0,0,0,0,0-.84.29-.79.75-.38,1.29,0,0,0,0,0,0,.05,1.08.04,2.15-1.06,2.95-.52.38-.32.86.06,1.12.8.55.84,1.4,1.39,2.03h0s0,0,0,0c.49.52,1.2.38,1.79.32.23-.03.45-.02.67-.04.47.05.93.01,1.33-.08,2.9-.11,5.79.14,8.68.15,0,0,0,0,0,0,0,0,0,0,0,0,4.15.08,8.28.48,12.43.35,1.13-.04,2.19-.13,3.16-.64.33.35.81.36,1.25.3,3.62-.52,7.18.15,10.76.3,2.1.09,4.27.37,6.35-.27,0,0,0,0,0,0h0c1.19.31,2.42.09,3.6.16,5.81.36,11.63-.41,17.43.17.45.05.91.02,1.25-.31.12,0,.24,0,.37,0,0,0,0,0,0,0,4.55,0,9.11,0,13.66,0h0s0,0,0,0c9.15.01,18.3.03,27.45.02.75,0,1.57.22,2.22-.3,0,0,0,0,0,0,.44.09.88.26,1.32.26,5.54-.06,11.1.38,16.63-.24,0,0,0,0,0,0,.65.11,1.3.22,1.95.32,0,0,0,0,0,0,1.27.64,2.41.24,3.53-.31,0,0,0,0,0,0,1.75-.12,3.38-.63,5.06-.97h0s0,0,0,0c3.19-.86,6.49-.61,9.76-.64,0,0,0,0,0,0,5.2.51,10.41.42,15.61.01,1.83.1,3.66.57,5.49.21.26,0,.51-.05.76-.2,2.38.05,4.74.36,7.14.35,5.41,0,10.83-.28,16.23.27.9.09,1.93.3,2.79-.28,0,0,0,0,0,0,5.05.69,10.11.87,15.19.34.27.28.65.31,1.05.32,7.72.22,15.44.45,23.16.67,0,0,0,0,0,0,2.97.5,5.96.72,8.99.65h0s0,0,0,0c5.46.11,10.92.22,16.39.32,0,0,0,0,0,0,2.84,0,5.68.06,8.52-.01,2.24-.06,4.51.38,6.71-.28,0,0,0,0,0,0,0,0,0,0,0,0,2.15.1,4.31.28,6.47.28,2.38,0,4.77-.16,7.16-.25,3.18.11,6.35.3,9.53.29,4.55-.01,9.1-.23,13.65-.27,2.66-.02,5.35.35,7.99.2,5.62-.32,11.24-.12,16.86-.2,0,0,0,0,0,0h.78s0,0,0,0c2.49.22,4.93-.49,7.42-.31,0,0,0,0,0,0,.64,0,1.29,0,1.93,0,0,0,0,0,0,0h0c1.31.66,2.61.21,3.92,0,0,0,0,0,0,0,0,0,0,0,0,0,.26,0,.52,0,.78,0,0,0,0,0,0,0,0,0,0,0,0,0,2.2,0,4.41.05,6.61-.01,1.06-.03,2.1.78,3.16.03,3.65.26,7.32.06,10.98.11,6.33.09,12.67-.32,19-.12.57.02,1.19.13,1.65-.29h0c.24,0,.49,0,.73,0,0,0,0,0,0,0,1.11.6,2.22-.05,3.33-.05,4.1,0,8.23.34,12.31-.27,0,0,0,0,0,0,0,0,0,0,0,0,.43.1.87.3,1.29.27,4.12-.32,8.24-.33,12.37-.27,0,0,0,0,0,0,.26,0,.52,0,.78.01,0,0,0,0,0,0h0c2.86.05,5.72-.32,8.58.02h0s0,0,0,0c.27.3.53.29.79-.02,0,0,0,0,0,0,2.19,0,4.41.19,6.56-.06,1.72-.2,3.67.24,5.18-.87h0c2.28-.32,4.31,1.02,6.6.65.66.63,1.31-.06,1.96-.02,0,0,0,0,0,0,0,0,0,0,0,0,2.46,0,4.92,0,7.38.02,3.43.03,6.81-.49,10.29-.11,2.46.26,5.12.47,7.59-.48.61-.24,1.41-.03,2.06.26,2.12.14,4.26-.09,6.38.3.8.14,1.8.3,2.59-.26,0,0,0,0,.01,0,3.17,0,6.34.03,9.51-.02,1-.01,2.07.3,3-.29,2.33,0,4.67,0,7,0,0,0,0,0,0,0,2.68-.29,5.34.07,8.01.12,2.42.04,4.83.02,7.2-.4,0,0,0,0,0,0t0,0c1,.6,1.98-.06,2.98-.05,5.49.08,10.99.05,16.49.02.94,0,1.95.27,2.82-.28,0,0,0,0,0,0,.12,0,.24,0,.36-.01,0,0,0,0,0,0,.78,0,1.55,0,2.33,0h0s0,0,0,0c.3.14.54.1.76,0,1.7,0,3.41-.01,5.11-.02h0s0,0,0,0c2.41.25,4.77-.42,7.15-.27,4.95.3,9.89-.39,14.83-.03.61.05,1.31.17,1.84-.29h0c.13,0,.25,0,.38-.01,0,0,0,0,0,0,1.17,0,2.34,0,3.5,0,0,0,0,0,0,0,.39,0,.79,0,1.18,0,0,0,0,0,0,0,1.82,0,3.63.02,5.45.03,0,0,.01-.02.02-.02,0,0,0,0,0,0,0,0-.02.02-.02.02,1.68.04,3.37.11,5.03-.17.29.01.57-.02.85-.15.25,0,.49,0,.74,0,0,0,0,0,0,0,2.74.39,5.48-.16,8.22,0,0,0,0,0,0,0,.13,0,.26,0,.39,0,6.41-.21,12.81.22,19.24-.73,2.87-.42,6.11.05,9.19-.07,3.04-.12,5.83-.69,7.93-2.69,0,0,0,0,0,0,.3-.02.58-.08.74-.33,0,0,0,0,0,0,1.32-.39.79-1.21.47-1.81-.93-1.75-.14-2.77,1.87-3.37,0,0,0,0,0,0,.58-1.39.27-2.87.66-4.28.01-.06-.16-.15-.24-.23,0,0,0,0,0,0-1.24-1.2-.94-2.26.41-3.24,1.66-1.22.4-3.13,1.53-4.48h0c.39-.54.91-.97,1.56-1.29,0,0,0,0,0,0,1.18-.35.43-1.04.41-1.6.76-.43.64-1.55,1.88-1.62.51-.03,1.41.14,1.3-.52-.11-.66-1.04-.37-1.62-.45-.18-.34-.5-.66-.3-1.06.63-1.24.6-2.3-.95-3.12-.23-.12-1.05-.64-.24-1.07,1.63-.88,1.98-2.37,2.63-3.7.28-.58.47-1.15,1.24-1.27.85-.13,1.36.39,1.48,1,.22,1.07.83.95,1.56.42.42-.3,1.24.05,1.4-.63-.53-.37-1.53-.15-1.68-.92-.34-1.77,1.29-1.12,2.28-1.24h0s0,0,0,0c.23.45-.49.94.03,1.35.26.21.63.02.87-.14,2.2-1.57,4.24-3.3,6.62-4.7.59-.35.99-.77.17-1.42-2.01-1.6-1.96-1.63.56-2.49h0s0,0,0,0c.54-.56.52-1.26.7-1.91.11-.39-.07-.79-.73-.38,0,0,0,0,0,0-.44-.01-.97.08-1.22-.28-.33-.49.32-.59.63-.8.58-.4,1.19-.76,1.79-1.14,0,0,0,0,0,0,.67-.64,1.62.15,2.32-.32,0,0,0,0,0,0,.83-.39,1.6-.9,2.48-1.14,1.35-.38,1.36-1.53,2.06-2.27.43-.45-.86-.75-1.29-1.18-.08-.08-.16-.17-.26-.24-1.17-.77-2.07-2.17-4.02-1.12-.2.11-.7-.15-1.06-.25-1.85-.5-2.1-1.87-2.54-3.14h0c.56-.51.1-.6-.41-.67h0s0,0,0,0c-1.3-.32-2.61-.65-3.92-.97,0,0,0,0,0,0,0,0,0,0,0,0-1.21-.67-2.24-1.43-2.17-2.8,0-.13-.35-.28-.54-.42,0-.52-.09-1.04.39-1.49.97-.9.64-1.8-.01-2.7,0,0,0,0,0,0,0,0,0,0,0,0-1.45-.5-2.37-1.94-4.28-1.63,0,0,0,0,0,0h0s0,0,0,0c0,0,0,0,0,0-.51-.51-1.2-.65-1.96-.62,0,0,0,0,0,0,0,0,0,0,0,0-.12-.02-.24-.03-.36-.04,0,0,0,0,0,0h0c-1.08-.56-2.28-.81-3.53-.96,0,0,0,0,0,0h0c0-.1-.01-.21-.02-.31,0,0,0,0,0,0h0c-.03-.66-.6-.65-1.16-.65,0,0,0,0,0,0,0,0,0,0,0,0-.16-.3-.4-.53-.79-.63-.52-.39-1.05-.77-1.54-1.18-.57-.49-.49-.95.22-1.31,2.5-1.26,4.94-2.59,7.59-3.64,0,0,0,0,0,0,.62-.41.8-.97.78-1.59,0,0,0,0,0,0,0,0,0,0,0,0,.52-.33,1.04-.65,1.56-.98.12-.22.25-.44.37-.66,0,0,0,0,0,0h0c.56-.51.61-1.36,1.56-1.62,0,0,0,0,0,0h0c1.1-.04.63-.53.4-.95.44-.58,1.03-1.1,1.16-1.81.08-.39.58-.77.04-1.17-.56-.42-1.07-.13-1.59.07h0s0,0,0,0c0,0,0,0,0,0-.27-.32-.26-.63,0-.95.25-.11.5-.23.75-.34h0s0,0,0,0c.37-.17,1.01-.21.94-.66-.06-.41-.63-.32-.96-.23-1.43.41-1.09-.44-1.11-1.04,0,0,0,0,0,0,0,0,0,0,0,0,.88.01,1.79.07,1.2-1.08-.21-.41.13-.81.33-1.2,0,0,0,0,0,0,.01-.1.03-.2.04-.29,0,0,0,0,0,0,1.07-.76.17-1.16-.42-1.62h0c-.27-.37-.72-.32-1.14-.34,0,0,0,0,0,0,0,0,0,0,0,0-.58-.63-.82-1.33-2.02-1.68-1.25-.37-.6-1.72,1.25-2.48,0,0,0,0,0,0h0c.45-.02.89-.02,1.28.25.95.65,1.43.06,1.73-.54.45-.89-.6-2.16-1.82-2.33,0,0,0,0,0,0-.18-.25-.47-.3-.78-.31,0,0,0,0,0,0-.52-.51-1.66-.14-1.99-.93h0c-.41-.39-.11-1.26-1.08-1.22-.58.03-.41.54-.46.88-.46.62-1.5.02-1.97.63,0,0,0,0,0,0h0s0,0,0,0c0,0,0,0,0,0-1.14.7-1.56-.37-2.31-.64-.47-1.8-.07-3.65-.36-5.46.74-.36.99-.96,1.15-1.61,0,0,0,0,0,0,.84-.91,1.37-2.04,2.72-2.59,0,0,0,0,0,0,.76-.3,1.77-.7,1.35-1.43-.5-.87.06-1.64-.17-2.43,0,0,0,0,0,0,.46-.24.37-.62.35-.97,0,0,0,0,0,0,.11-.19.28-.37.34-.57.6-2.14,1.43-3.99,4.84-3.67.85.08,1.5-.41.73-1.24,0,0,0,0,0,0-.12-.11-.25-.21-.37-.32h0s0,0,0,0c.32-.45.47-1.32,1.41-.54.66.55.85.14,1.29-.21,1.39-1.11.55-2.5.8-3.74,0,0,0,0,0,0,0,0,0,0,0,0,0,0,0,0,0,0h0c.96-1.3-.5-2.58-.02-3.88,0,0,0,0,0,0h0c.15-1.11-.05-2.13-1.16-2.9,0,0,0,0,0,0h0s0,0,0,0h0s0,0,0,0c.79-.61-.66-1.94.82-2.16,1.7-.25,1.73-1.24,1.89-2.21.1-.57.06-1.16.34-1.71.11-.23.22-.58-.09-.71-.41-.17-.63.29-.99.36,0,0,0,0,0,0,0,0,0,0,0,0-.62.28-1.14.77-1.96.64,0,0,0,0,0,0,0,0,0,0,0,0h0s0,0,0,0c0,0,0,0,0,0-.11-.74,1.29-.54,1.18-1.29,0,0,0,0,0,0,0,0,0,0,0,0,.66-.36,1.13-.72-.07-.96-.37-.08-.88.05-1.14-.11-.72-.47-1.66-.96-1.59-1.76.04-.43,1.06-.88,1.6-.58,2.22,1.21,3.39-.26,4.92-1.05-1.25.35-1.55-.36-1.43-1.59.01-.11-.21-.25-.32-.37,0,0,0,0,0,0-.58,0-1.17-.02-1.75-.02-1.11,0-1.47-.46-1.31-1.34.17-.91.43-1.79,1.26-2.44,1.19-.93,1.95-2.19,3.34-2.97h0c.72-.61,1.88-.89,1.99-1.93,0,0,0,0,0,0,.36-1.28,1.3-2.27,2.34-3.21,0,0,0,0,0,0,0,0,0,0,0,0,1.28-.15,1.53-1.08,2.17-1.77-.67-.3-1.27.2-1.76-.2,0,0,0,0,0,0,0,0,0,0,0,0,0-.1,0-.2-.01-.3,0,0,0,0,0,0,.17-.29.44-.61.81-.59,1.8.09,1.51-.76,1.15-1.66,0,0,0,0,0,0,0,0,0,0,0,0,.6-.31,1.45-.39,1.71-1.39-1.22.8-2.72.51-3.7,1.37,0,0,0,0,0,0,0,0,0,0,0,0-1.51,1.05-3.5.69-5.19,1.2-.1,0-.2.02-.29.08-2.87.13-5.67.84-8.57.66,0,0,0,0,0,0,0,0,0,0,0,0-2.61.21-5.24.36-7.84.64-2.34.25-4.66.63-6.99.95,0,0,0,0,0,0-2.37-.01-4.72.16-7.03.63,0,0,0,0,0,0,0,0,0,0,0,0-2.08.18-4.21-.38-6.26.3,0,0,0,0-.01,0-.63,0-1.26,0-1.9,0-.26-.21-.52-.43-.78-.64,0,0,0,0,0,0h0c-.09-1.09-.12-2.21-1.96-2.27-.67-.97-1.8-.53-2.75-.61-.39,0-.77,0-1.16.01,0,0,0,0,0,0-.78.32-1.76.31-2.37.92h0c-.54.06-1,.13-1.62-.09-1.09-.38-2.33-.43-3.46.09,0,0,0,0,0,0,0,0,0,0,0,0h-.19s-.19,0-.19,0c0,0,0,0,0,0-1.45.23-2.87.24-4.35.22-2.15-.03-4.38-.03-6.57.09,0,0,0,0,0,0-.22-.1-.45-.3-.65-.28-2.82.25-5.64.32-8.46,0-.21-.02-.45.17-.68.26,0,0,0,0,0,0,0,0,0,0,0,0-3.5,0-7.01.01-10.51.02,0,0,0,0,0,0,0,0,0,0,0,0-3.04-.03-6.07.16-9.11.26-5.94.18-11.89.03-17.84.06-1.82.01-3.63.18-5.45.27h0c-.78,0-1.56,0-2.33.01-.65,0-1.3,0-1.95,0-2.47,0-4.94,0-7.41,0,0,0,0,0,0,0-.13,0-.26,0-.39,0,0,0,0,0,0,0h0c-6.77-.12-13.53.15-20.3.29-.13,0-.26,0-.39.01,0,0,0,0,0,0-6.32,0-12.64-.07-18.95.06-1.07.02-2.29-.41-3.32.23-.39-.1-.77-.19-1.16-.29h0c-.61.25-1.27.3-1.94.3,0,0,0,0,0,0-2.08,0-4.16,0-6.25,0h0c-1.58-.05-3.14.02-4.68.31h0s0,0,0,0c-.11,0-.23-.01-.35-.01h0c-2.47-.6-4.94-.11-7.42-.04-6.77.19-13.56-.15-20.33.35,0,0,0,0,0,0-2.99,0-5.98,0-8.98,0,0,0,0,0,0,0,0,0,0,0,0,0-4.79.03-9.58-.07-14.37.03-.4-.13-.94-.09-1.51.03-1.6.05-3.21.12-4.81.23,0,0,0,0,0,0-.91,0-1.82,0-2.73,0,0,0,0,0,0,0,0,0,0,0,0,0-1.51,0-3.02.07-4.52.13-.31-.05-.58-.04-.8.03-.75.03-1.49.07-2.24.08-7.46.15-14.93.15-22.4.33-6.66.16-13.34.03-20.01.03,0,0,0,0,0,0-.13,0-.26,0-.39,0h0c-.61-.07-1.28.02-1.63.37-1.52,1.52-3.6,1.93-5.79,2.18,0,0,0,0,0,0-2.64.08-5.01.89-7.35,1.78-.13.03-.26.08-.39.14-.01,0-.03.01-.04.02h0s0,0,0,0c-1.92.71-3.79,1.54-5.88,1.92-.13,0-.26,0-.38.02,0,0,0,0,0,0,0,0,0,0,0,0-3.64-.01-7.28-.03-10.91-.04,0,0,0,0,0,0h0s0,0,0,0c-.69-.57-1.56-.23-2.35-.31,0,0,0,0,0,0-2.84-.34-5.71-.35-8.57-.34,0,0,0,0,0,0-1.77-.63-3.64-.16-5.46-.32h0s0,0,0,0c-1.52-.62-3.14-.17-4.7-.32-.25,0-.51,0-.76-.01,0,0,0,0,0,0-1.65-.65-3.4-.15-5.09-.31,0,0,0,0,0,0,0,0,0,0,0,0-.39,0-.78,0-1.18,0,0,0,0,0,0,0-1.03.11-1.97.91-3.1.29-1.79-1.18-3.76-.58-5.69-.39-.58.06-1.22.64-1.75,0-.55-.66-1.37-.44-2.09-.58-1.66-.31-3.29.72-4.93,0,0,0,0,0,0,0-1.36-.68-2.87-.16-4.29-.33,0,0,0,0,0,0-1.14-.32-2.32-.37-3.51-.32h-.78s0,0,0,0c0,0,0,0,0,0-5.44-.54-10.9-.89-16.39-.99h0s0,0,0,0c0,0,0,0,0,0-3.09-.5-6.24-.47-9.37-.64,0,0,0,0,0,0-.39,0-.78,0-1.17-.01,0,0,0,0,0,0,0,0,0,0,0,0-.25,0-.51,0-.76,0-2.94-.7-6.03,0-8.98-.66-.52,0-1.05,0-1.57,0-2.18-.55-4.42-.25-6.64-.33h0c-.12,0-.24-.01-.36-.01h0s0,0,0,0c-2.57-.66-5.21-.16-7.81-.32,0,0-.01,0-.02,0-.07-.04-.15-.07-.22-.09-.2-.09-.41-.19-.62-.19-5.06-.21-10.09-.79-15.16-.69h0c-2.01-.66-4.21-.43-6.24-.97,0,0,0,.01,0,.02,0,0,0,0,0,0v-.02c-.53-.51-1.27-.25-1.92-.33-.73-.54-1.65-.4-2.42-.29-4,.58-8.03.15-12.04.3,0,0,0,0,0,0,0,0,0,0,0,0h-.79s0,0,0,0c-4.04.2-8.07-.12-12.12.24-3.86.35-7.78-.47-11.68.05,0,0,0,0,0,0-7.93-.53-15.87-.23-23.8-.34.29.06.48.17.59.3-.21-.09-.42-.18-.59-.3-.13,0-.27,0-.4,0,0,0,0,0,0,0,0,0,0,0,0,0-9.24,0-18.47-.01-27.71-.02-3.52-.03-7.04-.08-10.54.29,0,0,0,0,0,0,0,0,0,0,0,0,0,0,0,0,0,0h0c-1.45-.26-2.91-.33-4.39-.32-3.09.02-6.17-.01-9.26-.02,0,0,0,0,0,0,0,0,0,0,0,0-.49-.5-.97-.52-1.67-.17-1.02.5-2.23.66-3.39.48-3.01-.48-6-.2-9,0-.08.07-.17.1-.27.12.09-.04.18-.08.27-.12-3.68,0-7.37.04-11.05-.03-1.91-.04-3.82-.5-5.74,0,0,0,0,0,0,0-6.24,0-12.48-.01-18.72-.01,0,0,0,0,0,0,0,0,0,0,0,0-1.05-.61-2.1.05-3.16.03-6.11-.08-12.21-.04-18.32-.04,0,0,0,0,0,0,0,0,0,0,0,0-6.42.26-12.84-.21-19.27.47-2.11.22-2.47,1.25-3.33,2.19-.62.68.08,1.18.68,1.6.36.26.69.76,1.24.18.23-.24.45-.64.89-.27.47.4-.02.67-.3.94-.33.33-.67.65-1.01.97h0c-.4.53-2.91.05-1.14,1.62,0,0,0,0,0,0,.35.43.94.23,1.4.36.67.19,1.45.46,1.08,1.19-.3.6-.94.85-1.68.29-.19-.14-.46-.19-.68.09.31.8.32,1.75,1.45,2.24,0,0,0,0,0,0,0,0,0,0,0,0,.24.12.49.23.73.35,0,0,0,0,0,0,0,0,0,0,0,0-.08.78,1.19.86,1.19,1.6h0c-.62.46-.32,1.07-.37,1.62,0,0,0,0,0,0-.26.54-.52,1.07-.78,1.61,0,0,0,0,0,0-.01.11-.01.21,0,.32,0,0,0,0,0,0,.04.69-.16,1.24-1.16,1.29-.39,0-.79,0-1.18,0,0,0,0,0,0,0,0,0,0,0,0,0-.38-.35-.72-.72-1.13-1.04-.34-.26-.94-.16-.9.13.11.85.52,1.65.43,2.55-.03.35.64.6,1.19.64,0,0,0,0,0,0,0,.32.02.63.03.95,0,0,0,0,0,0-1.34.13-2.73.21-1.24,1.75.21.21.08.63.45.82,0,0,0,0,0,0,0,0,0,0,0,0,.13.56,1.39.82.87,1.4-.45.49-1.43.28-2.15.07-.33-.09-.59-.51-.89-.04-.23.36.13.6.42.79.7.46,1.43.88,2.14,1.31,0,0,0,0,0,0,.67.44.59.79-.12,1.18-1.1.6-2.11,1.31-3.51,1.46.47.45.87.85,1.28,1.23-.8.76-1.14,1.72-2.73,2.03-2.34.45,1.14,1.59-.13,2.38-.04.03-.06.09-.07.14-.19.77.53.53.97.6,0,0,0,0,0,0,1.04.11.71.8.8,1.31,0,0,0,0,0,0,0,.1-.02.2-.03.31h0s0,0,0,0c-.65.32-1.3.64-1.94.96,0,0,0,0,0,0-.47.35-.84.79-1.54.88-1.86.22-2,.46-.97,1.76.42.53.93,1.01,1.45,1.47.84.73.75,1.19-.5,1.38,0,0,0,0,0,0l-.19-.02h-.19s0,0,0,0c-1.04-.45-2.04.16-2.98.28-1.13.14-.8,1.52-1.13,2.35-.18.46.08.79.56.85Z"/></g></svg>