<svg width="32" height="32" viewBox="0 0 32 32" fill="none" xmlns="http://www.w3.org/2000/svg">
<g clip-path="url(#clip0_1123_4325)">
<path d="M25.3012 14.1036C23.3995 14.1036 21.6371 13.4952 20.1986 12.4627V19.9162C20.1986 23.6385 17.1703 26.6668 13.4479 26.6668C12.0094 26.6668 10.6757 26.2131 9.57918 25.4434C7.83831 24.2212 6.69727 22.2001 6.69727 19.9162C6.69727 16.1938 9.72556 13.1654 13.4479 13.1654C13.7568 13.1654 14.0596 13.1908 14.3576 13.2313V14.1001V16.9756C14.0697 16.8854 13.7653 16.833 13.4479 16.833C11.748 16.833 10.3649 18.2162 10.3649 19.9162C10.3649 21.1 11.0365 22.1285 12.0178 22.645C12.4457 22.8702 12.9318 22.9992 13.4479 22.9992C15.1087 22.9992 16.4634 21.6782 16.5251 20.0322L16.531 5.3335H20.1986C20.1986 5.65145 20.2293 5.96216 20.2852 6.26412C20.5439 7.66158 21.3733 8.86045 22.5225 9.60966C23.3227 10.1315 24.2768 10.436 25.3012 10.436L25.3012 14.1036Z" fill="#CCCCCC"/>
</g>
<defs>
<clipPath id="clip0_1123_4325">
<rect width="21.3333" height="21.3333" fill="white" transform="translate(5.33301 5.3335)"/>
</clipPath>
</defs>
</svg>
