<svg width="16" height="16" viewBox="0 0 16 16" fill="none" xmlns="http://www.w3.org/2000/svg">
<path d="M5.83301 3.6665C5.83301 3.39036 6.05687 3.1665 6.33301 3.1665H12.333C12.6091 3.1665 12.833 3.39036 12.833 3.6665V9.6665C12.833 9.94264 12.6091 10.1665 12.333 10.1665C12.0569 10.1665 11.833 9.94264 11.833 9.6665V4.1665H6.33301C6.05687 4.1665 5.83301 3.94264 5.83301 3.6665Z" fill="white"/>
<path d="M12.6865 3.31295C12.8817 3.50821 12.8817 3.8248 12.6865 4.02006L4.20121 12.5054C4.00595 12.7006 3.68937 12.7006 3.4941 12.5054C3.29884 12.3101 3.29884 11.9935 3.4941 11.7982L11.9793 3.31295C12.1746 3.11769 12.4912 3.11769 12.6865 3.31295Z" fill="white"/>
</svg>
