<svg width="32" height="32" viewBox="0 0 32 32" fill="none" xmlns="http://www.w3.org/2000/svg">
<g clip-path="url(#clip0_1123_4321)">
<path d="M26.2205 10.8315C25.9751 9.90778 25.2522 9.18028 24.3347 8.9332C22.6709 8.48486 15.9997 8.48486 15.9997 8.48486C15.9997 8.48486 9.32842 8.48486 7.66467 8.9332C6.74717 9.18028 6.02426 9.90778 5.77884 10.8315C5.33301 12.5061 5.33301 15.9999 5.33301 15.9999C5.33301 15.9999 5.33301 19.4936 5.77884 21.1682C6.02426 22.0919 6.74717 22.8194 7.66467 23.0665C9.32842 23.5149 15.9997 23.5149 15.9997 23.5149C15.9997 23.5149 22.6709 23.5149 24.3347 23.0665C25.2522 22.8194 25.9751 22.0919 26.2205 21.1682C26.6663 19.4936 26.6663 15.9999 26.6663 15.9999C26.6663 15.9999 26.6663 12.5061 26.2205 10.8315ZM13.818 19.1719V12.8278L19.3934 15.9999L13.818 19.1719Z" fill="#CCCCCC"/>
</g>
<defs>
<clipPath id="clip0_1123_4321">
<rect width="21.3333" height="21.3333" fill="white" transform="translate(5.33301 5.3335)"/>
</clipPath>
</defs>
</svg>
