<svg width="32" height="32" viewBox="0 0 32 32" fill="none" xmlns="http://www.w3.org/2000/svg">
<g clip-path="url(#clip0_1123_4331)">
<path d="M16.0007 5.3335C10.1097 5.3335 5.33398 10.1091 5.33398 16C5.33398 21.8915 10.1097 26.6668 16.0007 26.6668C21.8918 26.6668 26.6673 21.8915 26.6673 16C26.6673 10.1091 21.8918 5.3335 16.0007 5.3335ZM20.8925 20.7186C20.7009 21.0329 20.2915 21.1314 19.9784 20.9398C17.4736 19.4089 14.3208 19.0632 10.6079 19.9113C10.2501 19.9933 9.89353 19.769 9.8119 19.4114C9.72994 19.0536 9.95332 18.697 10.3119 18.6154C14.3751 17.6865 17.8604 18.0862 20.672 19.8043C20.9854 19.9957 21.0841 20.4052 20.8925 20.7186ZM22.1977 17.814C21.9565 18.2055 21.4447 18.3282 21.0538 18.0879C18.1873 16.3259 13.8162 15.8155 10.4249 16.8449C9.98507 16.9777 9.52057 16.7298 9.38698 16.2908C9.25444 15.851 9.50253 15.3874 9.94153 15.2537C13.8156 14.0781 18.6317 14.6475 21.9241 16.6707C22.315 16.9115 22.4381 17.4235 22.1977 17.814ZM22.3103 14.7897C18.872 12.7478 13.2006 12.56 9.91823 13.5563C9.39111 13.7162 8.83373 13.4186 8.67407 12.8915C8.51432 12.3642 8.81157 11.8072 9.33907 11.647C13.1069 10.5032 19.3704 10.7242 23.3287 13.0738C23.8028 13.3552 23.9583 13.9675 23.6773 14.4408C23.396 14.9149 22.7833 15.0712 22.3103 14.7897Z" fill="#CCCCCC"/>
</g>
<defs>
<clipPath id="clip0_1123_4331">
<rect width="21.3333" height="21.3333" fill="white" transform="translate(5.33398 5.3335)"/>
</clipPath>
</defs>
</svg>
