<svg width="906" height="523" viewBox="0 0 906 523" fill="none" xmlns="http://www.w3.org/2000/svg">
<g clip-path="url(#clip0_1102_3418)">
<g style="mix-blend-mode:multiply">
<path d="M65.729 -0.0186768L4.07683 -0.0186768C4.46813 1.28882 4.92466 2.48096 5.48988 2.82706C5.51162 7.40331 4.96814 12.3257 6.22901 9.17228C7.01162 9.90294 6.77249 14.1331 6.66379 16.1712C6.07684 17.671 5.09857 21.3243 5.3377 22.3242C3.72901 23.7086 7.42466 27.3235 8.09857 28.1695C7.59857 28.0926 5.81596 34.1301 6.25074 34.9762C7.05509 32.0535 7.92466 34.9762 8.59857 41.2829C10.1421 39.8985 8.03335 44.744 8.27248 47.782C6.66379 48.2819 9.81597 53.5119 8.64205 54.5887C9.77249 56.4346 11.5986 61.7415 10.0334 61.3569C9.66379 62.7029 8.57683 66.7023 9.51161 68.2021C8.77248 66.6638 6.03336 75.0087 7.35944 75.0087C8.68553 75.0087 10.2725 81.777 7.07683 81.777C10.1203 81.777 6.51161 88.5068 6.53335 88.5068C6.79422 88.5068 8.64205 95.4673 8.16379 95.4673C6.29422 95.4673 4.64205 101.966 6.09857 101.966C7.46813 101.966 6.40292 108.888 6.57683 108.888C8.77249 108.888 7.48988 115.618 6.12031 115.618C5.25075 115.618 4.55509 122.963 7.16379 122.963C7.66379 122.963 6.12031 129.116 4.9464 129.116C4.40292 129.116 0.685529 134.923 2.03335 134.923C2.03335 134.923 1.01162 142.076 1.72901 142.076C0.272486 142.076 -0.29273 148.921 0.142053 148.921C-0.857947 148.921 3.77248 156.035 3.42466 156.035C3.12031 156.035 3.42466 162.688 3.22901 162.688C3.64205 162.688 3.07683 170.072 2.64205 170.072C5.38118 170.072 7.98988 173.34 6.96814 173.34C4.70727 173.34 7.64205 179.493 8.29423 179.493C7.35944 179.493 8.66379 186.185 7.9464 186.185C5.70727 186.185 8.72901 192.761 7.20727 192.761C5.98988 192.761 7.18553 199.414 7.88118 199.414C7.68553 199.414 9.81597 205.874 9.18553 205.874C10.3594 205.874 8.20727 212.796 8.59857 212.796C8.72901 212.796 11.4247 218.949 12.2073 218.949C12.3812 218.949 9.03335 225.948 11.0551 225.948C12.5333 225.948 10.1855 232.755 11.1203 232.755C11.9464 232.755 8.85944 239.831 12.3812 239.831C12.0116 239.831 9.16379 246.137 9.72901 246.137C9.18553 246.137 8.22901 253.213 7.31596 253.213C8.03336 253.213 6.01162 261.52 7.51162 261.52C4.81596 261.52 3.92466 269.288 6.40292 269.288C5.48987 269.288 6.55509 276.479 7.18553 276.479C6.03335 276.479 6.81597 283.286 6.85944 283.286C5.22901 283.286 5.62031 290.208 5.46813 290.208C7.35944 290.208 7.01161 296.899 7.77248 296.899C7.29422 296.899 4.22901 304.283 5.64205 304.283C5.20727 304.283 5.57683 311.205 6.22901 311.205C8.77249 311.205 7.35944 317.896 7.5551 317.896C7.8377 317.896 10.7073 324.011 10.4681 324.011C10.9681 324.011 9.229 331.01 10.642 331.01C10.642 331.01 5.85944 338.893 8.12031 338.893C8.48987 338.893 13.2942 344.7 12.1855 344.7C11.4029 344.7 12.142 351.507 13.2725 351.507C14.4029 351.507 13.3377 358.698 13.5551 358.698C15.0986 358.698 12.1421 366.043 12.5986 366.043C13.0116 366.043 12.2725 373.273 11.4029 373.273C11.8812 373.273 12.1855 380.272 12.8377 380.272C13.1421 380.272 11.6203 387.386 11.816 387.386C12.229 387.386 10.0551 394.5 13.316 394.5C12.9247 394.5 12.6203 401.499 10.6855 401.499C9.40292 401.499 13.229 408.767 13.4464 408.767C16.4247 408.767 12.6203 415.728 11.316 415.728C13.3377 415.728 10.5116 422.919 12.1855 422.919C11.7725 422.919 8.85944 429.88 10.5116 429.88C11.6855 429.88 11.4247 436.648 11.1638 436.648C12.0116 436.648 12.8812 443.531 12.9247 443.531C17.0116 443.531 13.9464 450.223 12.8594 450.223C11.642 450.223 8.88118 456.606 9.4464 456.606C6.92466 456.606 8.85944 463.452 10.6855 463.452C8.59857 463.452 12.7725 470.258 11.7507 470.258C10.8812 470.258 9.9464 476.873 10.8812 476.873C9.8377 476.873 10.6855 484.179 10.816 483.564C11.6203 483.141 10.7725 491.409 10.4247 490.871C10.1855 488.063 8.81596 496.87 9.27248 497.947C7.38118 499.562 7.62031 506.522 8.90292 505.176C9.9464 506.291 7.44639 513.483 6.90292 512.329C6.75074 514.021 6.40292 517.867 7.35944 519.866C7.0551 520.136 7.66378 522.404 8.3377 524.327H65.729L65.729 -0.0186768Z" fill="#CFCFCF"/>
</g>
<path d="M70.3594 -0.0186768L8.70721 -0.0186768C9.09851 1.28882 9.55504 2.48096 10.1203 2.82706C10.142 7.40331 9.59851 12.3257 10.8594 9.17228C11.642 9.90294 11.4029 14.1331 11.2942 16.1712C10.7072 17.671 9.72895 21.3243 9.96808 22.3242C8.35938 23.7086 12.055 27.3235 12.7289 28.1695C12.2289 28.0926 10.4463 34.1301 10.8811 34.9762C11.6855 32.0535 12.555 34.9762 13.2289 41.2829C14.7724 39.8985 12.6637 44.744 12.9029 47.782C11.2942 48.2819 14.4463 53.5119 13.2724 54.5887C14.4029 56.4346 16.2289 61.7415 14.6637 61.3569C14.2942 62.7029 13.2072 66.7023 14.142 68.2021C13.4029 66.6638 10.6637 75.0087 11.9898 75.0087C13.3159 75.0087 14.9029 81.777 11.7072 81.777C14.7507 81.777 11.142 88.5068 11.1637 88.5068C11.4246 88.5068 13.2724 95.4673 12.7942 95.4673C10.9246 95.4673 9.27243 101.966 10.7289 101.966C12.0985 101.966 11.0333 108.888 11.2072 108.888C13.4029 108.888 12.1203 115.618 10.7507 115.618C9.88112 115.618 9.18547 122.963 11.7942 122.963C12.2942 122.963 10.7507 129.116 9.57678 129.116C9.0333 129.116 5.31591 134.923 6.66373 134.923C6.66373 134.923 5.64199 142.076 6.35938 142.076C4.90286 142.076 4.33764 148.921 4.77243 148.921C3.77243 148.921 8.40286 156.035 8.05504 156.035C7.75069 156.035 8.05504 162.688 7.85938 162.688C8.27243 162.688 7.70721 170.072 7.27243 170.072C10.0116 170.072 12.6203 173.34 11.5985 173.34C9.33764 173.34 12.2724 179.493 12.9246 179.493C11.9898 179.493 13.2942 186.185 12.5768 186.185C10.3376 186.185 13.3594 192.761 11.8376 192.761C10.6203 192.761 11.8159 199.414 12.5116 199.414C12.3159 199.414 14.4463 205.874 13.8159 205.874C14.9898 205.874 12.8376 212.796 13.2289 212.796C13.3594 212.796 16.055 218.949 16.8376 218.949C16.9898 218.949 13.6637 225.948 15.6855 225.948C17.1637 225.948 14.8159 232.755 15.7507 232.755C16.5768 232.755 13.4898 239.831 17.0116 239.831C16.642 239.831 13.7942 246.137 14.3594 246.137C13.8159 246.137 12.8594 253.213 11.9463 253.213C12.6637 253.213 10.642 261.52 12.142 261.52C9.44634 261.52 8.55503 269.288 11.0333 269.288C10.1203 269.288 11.1855 276.479 11.8159 276.479C10.6637 276.479 11.4463 283.286 11.4898 283.286C9.85938 283.286 10.2507 290.208 10.0985 290.208C11.9898 290.208 11.642 296.899 12.4029 296.899C11.9246 296.899 8.85938 304.283 10.2724 304.283C9.83764 304.283 10.2072 311.205 10.8594 311.205C13.4029 311.205 11.9898 317.896 12.1855 317.896C12.4681 317.896 15.3376 324.011 15.0985 324.011C15.5985 324.011 13.8594 331.01 15.2724 331.01C15.2724 331.01 10.4898 338.893 12.7507 338.893C13.1203 338.893 17.9246 344.7 16.8159 344.7C16.0333 344.7 16.7724 351.507 17.9029 351.507C19.0333 351.507 17.9681 358.698 18.1855 358.698C19.7289 358.698 16.7724 366.043 17.2289 366.043C17.642 366.043 16.9029 373.273 16.0333 373.273C16.5116 373.273 16.8159 380.272 17.4681 380.272C17.7724 380.272 16.2507 387.386 16.4463 387.386C16.8594 387.386 14.6855 394.5 17.9463 394.5C17.555 394.5 17.2507 401.499 15.3159 401.499C14.0333 401.499 17.8594 408.767 18.0768 408.767C21.055 408.767 17.2507 415.728 15.9463 415.728C17.9681 415.728 15.142 422.919 16.8159 422.919C16.4029 422.919 13.4898 429.88 15.142 429.88C16.3159 429.88 16.055 436.648 15.7942 436.648C16.642 436.648 17.5116 443.531 17.555 443.531C21.642 443.531 18.5768 450.223 17.4898 450.223C16.2724 450.223 13.5116 456.606 14.0768 456.606C11.555 456.606 13.4898 463.452 15.3159 463.452C13.2289 463.452 17.4029 470.258 16.3811 470.258C15.5116 470.258 14.5768 476.873 15.5116 476.873C14.4681 476.873 15.3159 484.179 15.4463 483.564C16.2507 483.141 15.4029 491.409 15.055 490.871C14.8159 488.063 13.4463 496.87 13.9029 497.947C12.0116 499.562 12.2507 506.522 13.5333 505.176C14.5768 506.291 12.0768 513.483 11.5333 512.329C11.3811 514.021 11.0333 517.867 11.9898 519.866C11.6855 520.136 12.2942 522.404 12.9681 524.327H70.3594L70.3594 -0.0186768Z" fill="white"/>
</g>
<rect width="834" height="523" transform="translate(36)" fill="white"/>
<rect x="44" y="9.16666" width="13.25" height="17.6667" rx="5" fill="#131313"/>
<rect x="69.25" y="8.66666" width="14" height="18.6667" rx="5" fill="#131313"/>
<rect x="95.25" y="8.66666" width="14" height="18.6667" rx="5" fill="#131313"/>
<rect x="121.25" y="9.16666" width="13.25" height="17.6667" rx="5" fill="#131313"/>
<rect x="146.5" y="8.66666" width="14" height="18.6667" rx="5" fill="#131313"/>
<rect x="172.5" y="9.16666" width="13.25" height="17.6667" rx="5" fill="#131313"/>
<rect x="197.75" y="8.66666" width="14" height="18.6667" rx="5" fill="#131313"/>
<rect x="223.75" y="8" width="15" height="20" rx="5" fill="#131313"/>
<rect x="250.75" y="9.16666" width="13.25" height="17.6667" rx="5" fill="#131313"/>
<rect x="276" y="8.66666" width="14" height="18.6667" rx="5" fill="#131313"/>
<rect x="302" y="9.16666" width="13.25" height="17.6667" rx="5" fill="#131313"/>
<rect x="327.25" y="8.66666" width="14" height="18.6667" rx="5" fill="#131313"/>
<rect x="353.25" y="8.66666" width="14" height="18.6667" rx="5" fill="#131313"/>
<rect x="379.25" y="9.16666" width="13.25" height="17.6667" rx="5" fill="#131313"/>
<rect x="404.5" y="8.66666" width="14" height="18.6667" rx="5" fill="#131313"/>
<rect x="430.5" y="9.16666" width="13.25" height="17.6667" rx="5" fill="#131313"/>
<rect x="455.75" y="8.66666" width="14" height="18.6667" rx="5" fill="#131313"/>
<rect x="481.75" y="8" width="15" height="20" rx="5" fill="#131313"/>
<rect x="508.75" y="9.16666" width="13.25" height="17.6667" rx="5" fill="#131313"/>
<rect x="534" y="9.16666" width="13.25" height="17.6667" rx="5" fill="#131313"/>
<rect x="559.25" y="9.16666" width="13.25" height="17.6667" rx="5" fill="#131313"/>
<rect x="584.5" y="8.66666" width="14" height="18.6667" rx="5" fill="#131313"/>
<rect x="610.5" y="8.66666" width="14" height="18.6667" rx="5" fill="#131313"/>
<rect x="636.5" y="9.16666" width="13.25" height="17.6667" rx="5" fill="#131313"/>
<rect x="661.75" y="8" width="15" height="20" rx="5" fill="#131313"/>
<rect x="688.75" y="8" width="15" height="20" rx="5" fill="#131313"/>
<rect x="715.75" y="8" width="15" height="20" rx="5" fill="#131313"/>
<rect x="742.75" y="8.66666" width="14" height="18.6667" rx="5" fill="#131313"/>
<rect x="768.75" y="9.16666" width="13.25" height="17.6667" rx="5" fill="#131313"/>
<rect x="794" y="8.66666" width="14" height="18.6667" rx="5" fill="#131313"/>
<rect x="820" y="8" width="15" height="20" rx="5" fill="#131313"/>
<rect x="847" y="8" width="15" height="20" rx="5" fill="#131313"/>
<rect x="44" y="496.167" width="13.25" height="17.6667" rx="5" fill="#131313"/>
<rect x="69.25" y="495.667" width="14" height="18.6667" rx="5" fill="#131313"/>
<rect x="95.25" y="495.667" width="14" height="18.6667" rx="5" fill="#131313"/>
<rect x="121.25" y="496.167" width="13.25" height="17.6667" rx="5" fill="#131313"/>
<rect x="146.5" y="495.667" width="14" height="18.6667" rx="5" fill="#131313"/>
<rect x="172.5" y="496.167" width="13.25" height="17.6667" rx="5" fill="#131313"/>
<rect x="197.75" y="495.667" width="14" height="18.6667" rx="5" fill="#131313"/>
<rect x="223.75" y="495" width="15" height="20" rx="5" fill="#131313"/>
<rect x="250.75" y="496.167" width="13.25" height="17.6667" rx="5" fill="#131313"/>
<rect x="276" y="495.667" width="14" height="18.6667" rx="5" fill="#131313"/>
<rect x="302" y="496.167" width="13.25" height="17.6667" rx="5" fill="#131313"/>
<rect x="327.25" y="495.667" width="14" height="18.6667" rx="5" fill="#131313"/>
<rect x="353.25" y="495.667" width="14" height="18.6667" rx="5" fill="#131313"/>
<rect x="379.25" y="496.167" width="13.25" height="17.6667" rx="5" fill="#131313"/>
<rect x="404.5" y="495.667" width="14" height="18.6667" rx="5" fill="#131313"/>
<rect x="430.5" y="496.167" width="13.25" height="17.6667" rx="5" fill="#131313"/>
<rect x="455.75" y="495.667" width="14" height="18.6667" rx="5" fill="#131313"/>
<rect x="481.75" y="495" width="15" height="20" rx="5" fill="#131313"/>
<rect x="508.75" y="496.167" width="13.25" height="17.6667" rx="5" fill="#131313"/>
<rect x="534" y="496.167" width="13.25" height="17.6667" rx="5" fill="#131313"/>
<rect x="559.25" y="496.167" width="13.25" height="17.6667" rx="5" fill="#131313"/>
<rect x="584.5" y="495.667" width="14" height="18.6667" rx="5" fill="#131313"/>
<rect x="610.5" y="495.667" width="14" height="18.6667" rx="5" fill="#131313"/>
<rect x="636.5" y="496.167" width="13.25" height="17.6667" rx="5" fill="#131313"/>
<rect x="661.75" y="495" width="15" height="20" rx="5" fill="#131313"/>
<rect x="688.75" y="495" width="15" height="20" rx="5" fill="#131313"/>
<rect x="715.75" y="495" width="15" height="20" rx="5" fill="#131313"/>
<rect x="742.75" y="495.667" width="14" height="18.6667" rx="5" fill="#131313"/>
<rect x="768.75" y="496.167" width="13.25" height="17.6667" rx="5" fill="#131313"/>
<rect x="794" y="495.667" width="14" height="18.6667" rx="5" fill="#131313"/>
<rect x="820" y="495" width="15" height="20" rx="5" fill="#131313"/>
<rect x="847" y="495" width="15" height="20" rx="5" fill="#131313"/>
<g clip-path="url(#clip1_1102_3418)">
<g style="mix-blend-mode:multiply">
<path d="M840.271 523.019H901.923C901.532 521.711 901.075 520.519 900.51 520.173C900.488 515.597 901.032 510.674 899.771 513.828C898.988 513.097 899.228 508.867 899.336 506.829C899.923 505.329 900.901 501.676 900.662 500.676C902.271 499.291 898.575 495.677 897.901 494.831C898.401 494.907 900.184 488.87 899.749 488.024C898.945 490.946 898.075 488.024 897.401 481.717C895.858 483.101 897.967 478.256 897.728 475.218C899.336 474.718 896.184 469.488 897.358 468.411C896.228 466.565 894.401 461.259 895.967 461.643C896.336 460.297 897.423 456.298 896.488 454.798C897.228 456.336 899.967 447.991 898.641 447.991C897.314 447.991 895.728 441.223 898.923 441.223C895.88 441.223 899.488 434.493 899.467 434.493C899.206 434.493 897.358 427.533 897.836 427.533C899.706 427.533 901.358 421.034 899.901 421.034C898.532 421.034 899.597 414.112 899.423 414.112C897.228 414.112 898.51 407.382 899.88 407.382C900.749 407.382 901.445 400.037 898.836 400.037C898.336 400.037 899.88 393.884 901.054 393.884C901.597 393.884 905.314 388.077 903.967 388.077C903.967 388.077 904.988 380.924 904.271 380.924C905.728 380.924 906.293 374.079 905.858 374.079C906.858 374.079 902.228 366.965 902.575 366.965C902.88 366.965 902.575 360.312 902.771 360.312C902.358 360.312 902.923 352.928 903.358 352.928C900.619 352.928 898.01 349.66 899.032 349.66C901.293 349.66 898.358 343.507 897.706 343.507C898.641 343.507 897.336 336.815 898.054 336.815C900.293 336.815 897.271 330.239 898.793 330.239C900.01 330.239 898.814 323.586 898.119 323.586C898.314 323.586 896.184 317.126 896.814 317.126C895.641 317.126 897.793 310.204 897.401 310.204C897.271 310.204 894.575 304.051 893.793 304.051C893.619 304.051 896.967 297.052 894.945 297.052C893.467 297.052 895.814 290.245 894.88 290.245C894.054 290.245 897.141 283.169 893.619 283.169C893.988 283.169 896.836 276.863 896.271 276.863C896.814 276.863 897.771 269.787 898.684 269.787C897.967 269.787 899.988 261.48 898.488 261.48C901.184 261.48 902.075 253.712 899.597 253.712C900.51 253.712 899.445 246.521 898.814 246.521C899.967 246.521 899.184 239.714 899.141 239.714C900.771 239.714 900.38 232.792 900.532 232.792C898.641 232.792 898.988 226.101 898.228 226.101C898.706 226.101 901.771 218.717 900.358 218.717C900.793 218.717 900.423 211.795 899.771 211.795C897.228 211.795 898.641 205.104 898.445 205.104C898.162 205.104 895.293 198.989 895.532 198.989C895.032 198.989 896.771 191.99 895.358 191.99C895.358 191.99 900.141 184.107 897.88 184.107C897.51 184.107 892.706 178.3 893.814 178.3C894.597 178.3 893.858 171.493 892.728 171.493C891.597 171.493 892.662 164.302 892.445 164.302C890.901 164.302 893.858 156.957 893.401 156.957C892.988 156.957 893.728 149.727 894.597 149.727C894.119 149.727 893.814 142.728 893.162 142.728C892.858 142.728 894.38 135.614 894.184 135.614C893.771 135.614 895.945 128.5 892.684 128.5C893.075 128.5 893.38 121.501 895.314 121.501C896.597 121.501 892.771 114.233 892.554 114.233C889.575 114.233 893.38 107.272 894.684 107.272C892.662 107.272 895.488 100.081 893.814 100.081C894.228 100.081 897.141 93.1204 895.488 93.1204C894.314 93.1204 894.575 86.3522 894.836 86.3522C893.988 86.3522 893.119 79.4686 893.075 79.4686C888.988 79.4686 892.054 72.7772 893.141 72.7772C894.358 72.7772 897.119 66.3936 896.554 66.3936C899.075 66.3936 897.141 59.5484 895.314 59.5484C897.401 59.5484 893.228 52.7417 894.249 52.7417C895.119 52.7417 896.054 46.1273 895.119 46.1273C896.162 46.1273 895.314 38.8207 895.184 39.436C894.38 39.859 895.228 31.591 895.575 32.1294C895.814 34.9366 897.184 26.1302 896.728 25.0535C898.619 23.4383 898.38 16.4778 897.097 17.8238C896.054 16.7086 898.554 9.51733 899.097 10.671C899.249 8.97895 899.597 5.13334 898.641 3.13363C898.945 2.86444 898.336 0.595528 897.662 -1.32727H840.271V523.019Z" fill="#CFCFCF"/>
</g>
<path d="M835.641 523.019H897.293C896.901 521.711 896.445 520.519 895.88 520.173C895.858 515.597 896.401 510.674 895.141 513.828C894.358 513.097 894.597 508.867 894.706 506.829C895.293 505.329 896.271 501.676 896.032 500.676C897.641 499.291 893.945 495.677 893.271 494.831C893.771 494.907 895.554 488.87 895.119 488.024C894.315 490.946 893.445 488.024 892.771 481.717C891.228 483.101 893.336 478.256 893.097 475.218C894.706 474.718 891.554 469.488 892.728 468.411C891.597 466.565 889.771 461.259 891.336 461.643C891.706 460.297 892.793 456.298 891.858 454.798C892.597 456.336 895.336 447.991 894.01 447.991C892.684 447.991 891.097 441.223 894.293 441.223C891.249 441.223 894.858 434.493 894.836 434.493C894.575 434.493 892.728 427.533 893.206 427.533C895.075 427.533 896.728 421.034 895.271 421.034C893.901 421.034 894.967 414.112 894.793 414.112C892.597 414.112 893.88 407.382 895.249 407.382C896.119 407.382 896.815 400.037 894.206 400.037C893.706 400.037 895.249 393.884 896.423 393.884C896.967 393.884 900.684 388.077 899.336 388.077C899.336 388.077 900.358 380.924 899.641 380.924C901.097 380.924 901.662 374.079 901.228 374.079C902.228 374.079 897.597 366.965 897.945 366.965C898.249 366.965 897.945 360.312 898.141 360.312C897.728 360.312 898.293 352.928 898.728 352.928C895.988 352.928 893.38 349.66 894.401 349.66C896.662 349.66 893.728 343.507 893.075 343.507C894.01 343.507 892.706 336.815 893.423 336.815C895.662 336.815 892.641 330.239 894.162 330.239C895.38 330.239 894.184 323.586 893.488 323.586C893.684 323.586 891.554 317.126 892.184 317.126C891.01 317.126 893.162 310.204 892.771 310.204C892.641 310.204 889.945 304.051 889.162 304.051C889.01 304.051 892.336 297.052 890.315 297.052C888.836 297.052 891.184 290.245 890.249 290.245C889.423 290.245 892.51 283.169 888.988 283.169C889.358 283.169 892.206 276.863 891.641 276.863C892.184 276.863 893.141 269.787 894.054 269.787C893.336 269.787 895.358 261.48 893.858 261.48C896.554 261.48 897.445 253.712 894.967 253.712C895.88 253.712 894.815 246.521 894.184 246.521C895.336 246.521 894.554 239.714 894.51 239.714C896.141 239.714 895.749 232.792 895.901 232.792C894.01 232.792 894.358 226.101 893.597 226.101C894.075 226.101 897.141 218.717 895.728 218.717C896.162 218.717 895.793 211.795 895.141 211.795C892.597 211.795 894.01 205.104 893.815 205.104C893.532 205.104 890.662 198.989 890.901 198.989C890.401 198.989 892.141 191.99 890.728 191.99C890.728 191.99 895.51 184.107 893.249 184.107C892.88 184.107 888.075 178.3 889.184 178.3C889.967 178.3 889.228 171.493 888.097 171.493C886.967 171.493 888.032 164.302 887.815 164.302C886.271 164.302 889.228 156.957 888.771 156.957C888.358 156.957 889.097 149.727 889.967 149.727C889.488 149.727 889.184 142.728 888.532 142.728C888.228 142.728 889.749 135.614 889.554 135.614C889.141 135.614 891.315 128.5 888.054 128.5C888.445 128.5 888.749 121.501 890.684 121.501C891.967 121.501 888.141 114.233 887.923 114.233C884.945 114.233 888.749 107.272 890.054 107.272C888.032 107.272 890.858 100.081 889.184 100.081C889.597 100.081 892.51 93.1204 890.858 93.1204C889.684 93.1204 889.945 86.3522 890.206 86.3522C889.358 86.3522 888.488 79.4686 888.445 79.4686C884.358 79.4686 887.423 72.7772 888.51 72.7772C889.728 72.7772 892.488 66.3936 891.923 66.3936C894.445 66.3936 892.51 59.5484 890.684 59.5484C892.771 59.5484 888.597 52.7417 889.619 52.7417C890.488 52.7417 891.423 46.1273 890.488 46.1273C891.532 46.1273 890.684 38.8207 890.554 39.436C889.749 39.859 890.597 31.591 890.945 32.1294C891.184 34.9366 892.554 26.1302 892.097 25.0535C893.988 23.4383 893.749 16.4778 892.467 17.8238C891.423 16.7086 893.923 9.51733 894.467 10.671C894.619 8.97895 894.967 5.13334 894.01 3.13363C894.315 2.86444 893.706 0.595528 893.032 -1.32727H835.641V523.019Z" fill="white"/>
</g>
<defs>
<clipPath id="clip0_1102_3418">
<rect width="523" height="36" fill="white" transform="matrix(0 1 -1 0 36 0)"/>
</clipPath>
<clipPath id="clip1_1102_3418">
<rect width="523" height="36" fill="white" transform="matrix(0 -1 1 0 870 523)"/>
</clipPath>
</defs>
</svg>
