<svg width="32" height="32" viewBox="0 0 32 32" fill="none" xmlns="http://www.w3.org/2000/svg">
<g clip-path="url(#clip0_1123_4315)">
<path d="M15.9997 7.25541C18.8478 7.25541 19.1852 7.26629 20.31 7.31758C21.4722 7.37062 22.6701 7.63587 23.517 8.4827C24.3719 9.33762 24.629 10.5238 24.6822 11.6899C24.7336 12.8147 24.7444 13.152 24.7444 16.0001C24.7444 18.8482 24.7335 19.1856 24.6822 20.3104C24.6295 21.4667 24.3589 22.6755 23.5171 23.5174C22.6617 24.3728 21.4771 24.6294 20.3099 24.6827C19.1853 24.734 18.848 24.7449 15.9996 24.7449C13.1513 24.7449 12.814 24.734 11.6893 24.6827C10.542 24.6303 9.3173 24.3525 8.48234 23.5176C7.63192 22.6672 7.36997 21.47 7.31705 20.3104C7.26572 19.1856 7.25488 18.8482 7.25488 16.0001C7.25488 13.152 7.26576 12.8146 7.31705 11.6898C7.36963 10.5377 7.64359 9.32145 8.48217 8.48283C9.33547 7.6295 10.5255 7.37066 11.6893 7.31754C12.8142 7.26629 13.1515 7.25541 15.9997 7.25541ZM15.9997 5.3335C13.1028 5.3335 12.7395 5.34575 11.6018 5.39766C9.9523 5.47295 8.31559 5.93154 7.1233 7.12375C5.92655 8.3205 5.47238 9.95404 5.39717 11.6023C5.34526 12.74 5.33301 13.1032 5.33301 16.0002C5.33301 18.8971 5.34526 19.2603 5.39717 20.398C5.47234 22.0449 5.93342 23.6867 7.12326 24.8765C8.31855 26.0718 9.95542 26.5275 11.6018 26.6026C12.7395 26.6546 13.1028 26.6668 15.9997 26.6668C18.8966 26.6668 19.2598 26.6546 20.3976 26.6027C22.0453 26.5275 23.6851 26.0675 24.876 24.8766C26.0733 23.6794 26.527 22.0467 26.6022 20.398C26.6541 19.2603 26.6663 18.8971 26.6663 16.0002C26.6663 13.1033 26.6541 12.74 26.6022 11.6023C26.527 9.9537 26.0675 8.31525 24.8761 7.12383C23.6825 5.9302 22.041 5.47266 20.3975 5.39766C19.2598 5.34575 18.8966 5.3335 15.9997 5.3335Z" fill="#CCCCCC"/>
<path d="M16 10.5225C12.9748 10.5225 10.5225 12.9748 10.5225 16C10.5225 19.0251 12.9748 21.4774 16 21.4774C19.0251 21.4774 21.4775 19.0251 21.4775 16C21.4775 12.9748 19.0251 10.5225 16 10.5225ZM16 19.5555C14.0363 19.5555 12.4444 17.9636 12.4444 16C12.4444 14.0363 14.0363 12.4444 16 12.4444C17.9636 12.4444 19.5555 14.0363 19.5555 16C19.5555 17.9636 17.9636 19.5555 16 19.5555Z" fill="#CCCCCC"/>
<path d="M21.6941 11.5859C22.401 11.5859 22.9741 11.0128 22.9741 10.3059C22.9741 9.59895 22.401 9.02588 21.6941 9.02588C20.9871 9.02588 20.4141 9.59895 20.4141 10.3059C20.4141 11.0128 20.9871 11.5859 21.6941 11.5859Z" fill="#CCCCCC"/>
</g>
<defs>
<clipPath id="clip0_1123_4315">
<rect width="21.3333" height="21.3333" fill="white" transform="translate(5.33301 5.3335)"/>
</clipPath>
</defs>
</svg>
