<?xml version="1.0" encoding="utf-8"?>
<!-- Generator: Adobe Illustrator 24.3.0, SVG Export Plug-In . SVG Version: 6.00 Build 0)  -->
<svg version="1.1" id="Layer_1" xmlns="http://www.w3.org/2000/svg" xmlns:xlink="http://www.w3.org/1999/xlink" x="0px" y="0px"
	 viewBox="0 0 164 82" style="enable-background:new 0 0 164 82;" xml:space="preserve">
<style type="text/css">
	.st0{fill:#FFFFFF;}
</style>
<g>
	<path class="st0" d="M10.44,79.06H8.67l-0.32-1.03H6.23l-0.34,1.03H4.12l2.51-6.9h1.31L10.44,79.06z M7.91,76.62l-0.58-1.84
		l-0.62,1.84H7.91z"/>
	<path class="st0" d="M15.07,77.35c0,0.58-0.23,1.03-0.68,1.35c-0.4,0.28-0.93,0.42-1.58,0.42c-0.5,0-0.88-0.04-1.16-0.11
		c-0.41-0.11-0.78-0.33-1.1-0.65l1.03-1.03c0.29,0.29,0.72,0.44,1.27,0.44c0.45,0,0.68-0.11,0.68-0.34c0-0.19-0.13-0.3-0.38-0.33
		l-0.81-0.08c-1.01-0.1-1.52-0.6-1.52-1.51c0-0.54,0.22-0.97,0.65-1.3c0.39-0.28,0.86-0.43,1.42-0.43c0.94,0,1.63,0.21,2.05,0.64
		l-0.97,0.98c-0.21-0.21-0.57-0.31-1.1-0.31c-0.34,0-0.51,0.1-0.51,0.3c0,0.17,0.11,0.27,0.34,0.29l0.8,0.08
		c0.52,0.05,0.92,0.23,1.19,0.52C14.95,76.56,15.07,76.91,15.07,77.35z"/>
	<path class="st0" d="M20.24,76.45c0,0.52-0.04,0.92-0.12,1.21c-0.08,0.29-0.23,0.55-0.45,0.78c-0.41,0.45-0.97,0.67-1.68,0.67
		c-0.7,0-1.26-0.22-1.68-0.67c-0.22-0.23-0.37-0.49-0.45-0.78c-0.08-0.29-0.12-0.69-0.12-1.21c0-0.52,0.04-0.92,0.12-1.21
		c0.08-0.29,0.23-0.55,0.45-0.78c0.41-0.45,0.97-0.67,1.68-0.67c0.7,0,1.26,0.22,1.68,0.67c0.22,0.23,0.37,0.49,0.45,0.78
		C20.2,75.53,20.24,75.94,20.24,76.45z M18.65,76.45c0-0.39-0.02-0.66-0.07-0.8c-0.1-0.28-0.29-0.43-0.59-0.43
		c-0.3,0-0.49,0.14-0.59,0.43c-0.05,0.15-0.07,0.42-0.07,0.8c0,0.39,0.02,0.66,0.07,0.8c0.1,0.28,0.29,0.43,0.59,0.43
		c0.3,0,0.49-0.14,0.59-0.43C18.63,77.11,18.65,76.84,18.65,76.45z"/>
	<path class="st0" d="M25.28,77.35c0,0.58-0.23,1.03-0.68,1.35c-0.4,0.28-0.93,0.42-1.58,0.42c-0.5,0-0.88-0.04-1.16-0.11
		c-0.41-0.11-0.78-0.33-1.1-0.65l1.03-1.03c0.29,0.29,0.72,0.44,1.27,0.44c0.45,0,0.68-0.11,0.68-0.34c0-0.19-0.13-0.3-0.38-0.33
		l-0.81-0.08c-1.01-0.1-1.52-0.6-1.52-1.51c0-0.54,0.22-0.97,0.65-1.3c0.39-0.28,0.86-0.43,1.42-0.43c0.94,0,1.63,0.21,2.05,0.64
		l-0.97,0.98c-0.21-0.21-0.57-0.31-1.1-0.31c-0.34,0-0.51,0.1-0.51,0.3c0,0.17,0.11,0.27,0.34,0.29l0.8,0.08
		c0.52,0.05,0.92,0.23,1.19,0.52C25.16,76.56,25.28,76.91,25.28,77.35z"/>
	<path class="st0" d="M27.9,72.65c0,0.26-0.1,0.49-0.29,0.68c-0.19,0.19-0.42,0.29-0.68,0.29c-0.26,0-0.49-0.1-0.68-0.29
		c-0.19-0.19-0.29-0.42-0.29-0.68c0-0.26,0.09-0.49,0.29-0.68c0.19-0.19,0.42-0.29,0.68-0.29c0.26,0,0.49,0.1,0.68,0.29
		C27.8,72.15,27.9,72.38,27.9,72.65z M27.72,79.06h-1.59v-5.01h1.59V79.06z"/>
	<path class="st0" d="M33.01,79.06h-1.55v-0.43c-0.32,0.32-0.7,0.47-1.16,0.47c-0.52,0-0.94-0.15-1.24-0.46
		c-0.31-0.31-0.46-0.72-0.46-1.23c0-0.43,0.14-0.77,0.43-1.05c0.32-0.31,0.77-0.46,1.35-0.46h1.06v-0.14c0-0.43-0.26-0.65-0.78-0.65
		c-0.32,0-0.6,0.12-0.83,0.35l-0.99-0.99c0.26-0.26,0.54-0.45,0.81-0.55c0.28-0.1,0.64-0.15,1.08-0.15c1.53,0,2.3,0.63,2.3,1.89
		V79.06z M31.42,77.1v-0.14h-0.8c-0.34,0-0.5,0.14-0.5,0.42c0,0.29,0.17,0.44,0.52,0.44c0.28,0,0.49-0.06,0.63-0.19
		C31.37,77.53,31.42,77.35,31.42,77.1z"/>
	<path class="st0" d="M38.15,77.35c0,0.58-0.23,1.03-0.68,1.35c-0.4,0.28-0.93,0.42-1.58,0.42c-0.5,0-0.88-0.04-1.16-0.11
		c-0.41-0.11-0.78-0.33-1.1-0.65l1.03-1.03c0.29,0.29,0.72,0.44,1.27,0.44c0.45,0,0.68-0.11,0.68-0.34c0-0.19-0.13-0.3-0.38-0.33
		l-0.81-0.08c-1.01-0.1-1.52-0.6-1.52-1.51c0-0.54,0.22-0.97,0.65-1.3c0.39-0.28,0.86-0.43,1.42-0.43c0.94,0,1.63,0.21,2.05,0.64
		l-0.97,0.98c-0.21-0.21-0.57-0.31-1.1-0.31c-0.34,0-0.51,0.1-0.51,0.3c0,0.17,0.11,0.27,0.34,0.29l0.8,0.08
		c0.52,0.05,0.92,0.23,1.19,0.52C38.02,76.56,38.15,76.91,38.15,77.35z"/>
	<path class="st0" d="M40.76,72.65c0,0.26-0.1,0.49-0.29,0.68c-0.19,0.19-0.42,0.29-0.68,0.29c-0.26,0-0.49-0.1-0.68-0.29
		c-0.19-0.19-0.29-0.42-0.29-0.68c0-0.26,0.09-0.49,0.29-0.68c0.19-0.19,0.42-0.29,0.68-0.29c0.26,0,0.49,0.1,0.68,0.29
		C40.67,72.15,40.76,72.38,40.76,72.65z M40.59,79.06H39v-5.01h1.59V79.06z"/>
	<path class="st0" d="M49.12,74.38c0,0.61-0.2,1.12-0.6,1.53c-0.44,0.46-1.02,0.69-1.75,0.69h-1.04v2.46h-1.7v-6.9h2.73
		c0.73,0,1.31,0.23,1.75,0.69C48.92,73.26,49.12,73.77,49.12,74.38z M47.43,74.38c0-0.19-0.07-0.35-0.2-0.49
		c-0.14-0.14-0.31-0.21-0.53-0.21h-0.96v1.39h0.96c0.22,0,0.4-0.07,0.53-0.21C47.36,74.73,47.43,74.57,47.43,74.38z"/>
	<path class="st0" d="M54.01,74.27l-1.2,1.22c-0.18-0.18-0.37-0.27-0.57-0.27c-0.15,0-0.28,0.05-0.4,0.14
		c-0.16,0.13-0.24,0.32-0.24,0.58v3.12h-1.59v-5.21h1.54v0.43c0.32-0.32,0.74-0.48,1.23-0.48C53.28,73.79,53.69,73.95,54.01,74.27z"
		/>
	<path class="st0" d="M58.92,76.45c0,0.52-0.04,0.92-0.12,1.21c-0.08,0.29-0.23,0.55-0.45,0.78c-0.41,0.45-0.97,0.67-1.68,0.67
		c-0.7,0-1.26-0.22-1.68-0.67c-0.22-0.23-0.37-0.49-0.45-0.78c-0.08-0.29-0.12-0.69-0.12-1.21c0-0.52,0.04-0.92,0.12-1.21
		c0.08-0.29,0.23-0.55,0.45-0.78c0.41-0.45,0.97-0.67,1.68-0.67c0.7,0,1.26,0.22,1.68,0.67c0.22,0.23,0.37,0.49,0.45,0.78
		C58.88,75.53,58.92,75.94,58.92,76.45z M57.33,76.45c0-0.39-0.02-0.66-0.07-0.8c-0.1-0.28-0.29-0.43-0.59-0.43
		c-0.3,0-0.49,0.14-0.59,0.43c-0.05,0.15-0.07,0.42-0.07,0.8c0,0.39,0.02,0.66,0.07,0.8c0.1,0.28,0.29,0.43,0.59,0.43
		c0.3,0,0.49-0.14,0.59-0.43C57.31,77.11,57.33,76.84,57.33,76.45z"/>
	<path class="st0" d="M67.26,79.06h-1.59v-3.12c0-0.26-0.08-0.46-0.24-0.58c-0.11-0.09-0.24-0.14-0.4-0.14s-0.29,0.05-0.4,0.14
		c-0.16,0.12-0.24,0.32-0.24,0.58v3.12h-1.59v-3.12c0-0.26-0.08-0.46-0.24-0.58c-0.11-0.09-0.24-0.14-0.4-0.14s-0.29,0.05-0.4,0.14
		c-0.16,0.12-0.24,0.32-0.24,0.58v3.12h-1.59v-5.21h1.54v0.43c0.32-0.32,0.73-0.48,1.21-0.48c0.52,0,0.95,0.18,1.27,0.55
		c0.42-0.37,0.91-0.55,1.47-0.55c0.54,0,0.95,0.15,1.25,0.45c0.38,0.38,0.57,0.88,0.57,1.49V79.06z"/>
	<path class="st0" d="M72.73,76.45c0,0.52-0.04,0.92-0.12,1.21c-0.08,0.29-0.23,0.55-0.45,0.78c-0.41,0.45-0.97,0.67-1.68,0.67
		c-0.7,0-1.26-0.22-1.68-0.67c-0.22-0.23-0.37-0.49-0.45-0.78c-0.08-0.29-0.12-0.69-0.12-1.21c0-0.52,0.04-0.92,0.12-1.21
		c0.08-0.29,0.23-0.55,0.45-0.78c0.41-0.45,0.97-0.67,1.68-0.67c0.7,0,1.26,0.22,1.68,0.67c0.22,0.23,0.37,0.49,0.45,0.78
		C72.69,75.53,72.73,75.94,72.73,76.45z M71.14,76.45c0-0.39-0.02-0.66-0.07-0.8c-0.1-0.28-0.29-0.43-0.59-0.43
		c-0.3,0-0.49,0.14-0.59,0.43c-0.05,0.15-0.07,0.42-0.07,0.8c0,0.39,0.02,0.66,0.07,0.8c0.1,0.28,0.29,0.43,0.59,0.43
		c0.3,0,0.49-0.14,0.59-0.43C71.12,77.11,71.14,76.84,71.14,76.45z"/>
	<path class="st0" d="M76.28,79.06h-0.79c-0.54,0-0.95-0.17-1.24-0.5c-0.25-0.28-0.38-0.63-0.38-1.04v-2.25h-0.47v-1.22h0.47v-1.49
		h1.59v1.49h0.82v1.22h-0.82v2.13c0,0.21,0.11,0.32,0.32,0.32h0.5V79.06z"/>
	<path class="st0" d="M81.57,76.45c0,0.52-0.04,0.92-0.12,1.21c-0.08,0.29-0.23,0.55-0.45,0.78c-0.41,0.45-0.97,0.67-1.68,0.67
		c-0.7,0-1.26-0.22-1.68-0.67c-0.22-0.23-0.37-0.49-0.45-0.78c-0.08-0.29-0.12-0.69-0.12-1.21c0-0.52,0.04-0.92,0.12-1.21
		c0.08-0.29,0.23-0.55,0.45-0.78c0.41-0.45,0.97-0.67,1.68-0.67c0.7,0,1.26,0.22,1.68,0.67c0.22,0.23,0.37,0.49,0.45,0.78
		C81.53,75.53,81.57,75.94,81.57,76.45z M79.98,76.45c0-0.39-0.02-0.66-0.07-0.8c-0.1-0.28-0.29-0.43-0.59-0.43
		c-0.3,0-0.49,0.14-0.59,0.43c-0.05,0.15-0.07,0.42-0.07,0.8c0,0.39,0.02,0.66,0.07,0.8c0.1,0.28,0.29,0.43,0.59,0.43
		c0.3,0,0.49-0.14,0.59-0.43C79.96,77.11,79.98,76.84,79.98,76.45z"/>
	<path class="st0" d="M86.59,74.27l-1.2,1.22c-0.18-0.18-0.37-0.27-0.57-0.27c-0.15,0-0.28,0.05-0.4,0.14
		c-0.16,0.13-0.24,0.32-0.24,0.58v3.12h-1.59v-5.21h1.54v0.43c0.32-0.32,0.74-0.48,1.23-0.48C85.85,73.79,86.26,73.95,86.59,74.27z"
		/>
	<path class="st0" d="M95.87,79.06h-1.7v-3.3l-0.98,1.7h-1.08l-0.98-1.7v3.3h-1.7v-6.9h1.67l1.55,3.04l1.55-3.04h1.67V79.06z"/>
	<path class="st0" d="M101.58,79.06h-1.55v-0.43c-0.32,0.32-0.73,0.48-1.21,0.48c-0.48,0-0.88-0.15-1.17-0.45
		c-0.35-0.35-0.52-0.85-0.52-1.49v-3.33h1.59v3.12c0,0.26,0.08,0.46,0.24,0.58c0.11,0.09,0.24,0.14,0.4,0.14s0.29-0.05,0.4-0.14
		c0.16-0.12,0.24-0.32,0.24-0.58v-3.12h1.59V79.06z"/>
	<path class="st0" d="M106.8,77.35c0,0.58-0.23,1.03-0.68,1.35c-0.4,0.28-0.93,0.42-1.58,0.42c-0.5,0-0.88-0.04-1.16-0.11
		c-0.41-0.11-0.78-0.33-1.1-0.65l1.03-1.03c0.29,0.29,0.72,0.44,1.27,0.44c0.45,0,0.68-0.11,0.68-0.34c0-0.19-0.13-0.3-0.38-0.33
		l-0.81-0.08c-1.01-0.1-1.52-0.6-1.52-1.51c0-0.54,0.22-0.97,0.65-1.3c0.39-0.28,0.86-0.43,1.42-0.43c0.94,0,1.63,0.21,2.05,0.64
		l-0.97,0.98c-0.21-0.21-0.57-0.31-1.1-0.31c-0.34,0-0.51,0.1-0.51,0.3c0,0.17,0.11,0.27,0.34,0.29l0.8,0.08
		c0.52,0.05,0.92,0.23,1.19,0.52C106.68,76.56,106.8,76.91,106.8,77.35z"/>
	<path class="st0" d="M109.42,72.65c0,0.26-0.1,0.49-0.29,0.68c-0.19,0.19-0.42,0.29-0.68,0.29c-0.26,0-0.49-0.1-0.68-0.29
		c-0.19-0.19-0.29-0.42-0.29-0.68c0-0.26,0.09-0.49,0.29-0.68s0.42-0.29,0.68-0.29c0.26,0,0.49,0.1,0.68,0.29
		C109.32,72.15,109.42,72.38,109.42,72.65z M109.24,79.06h-1.59v-5.01h1.59V79.06z"/>
	<path class="st0" d="M115.39,79.06h-1.97l-1.08-1.91l-0.31,0.34v1.57h-1.59v-6.9h1.59v3.51l1.4-1.82h1.91l-1.92,2.16L115.39,79.06z
		"/>
	<path class="st0" d="M119.94,79.06h-1.7v-6.9h1.7V79.06z"/>
	<path class="st0" d="M125.69,79.06h-1.59v-3.12c0-0.26-0.08-0.46-0.24-0.58c-0.11-0.09-0.24-0.14-0.4-0.14s-0.29,0.05-0.4,0.14
		c-0.16,0.12-0.24,0.32-0.24,0.58v3.12h-1.59v-5.21h1.54v0.43c0.32-0.32,0.73-0.48,1.21-0.48c0.49,0,0.88,0.15,1.18,0.45
		c0.35,0.35,0.53,0.85,0.53,1.49V79.06z"/>
	<path class="st0" d="M131.16,79.06h-1.54v-0.43c-0.32,0.32-0.72,0.48-1.2,0.48c-0.53,0-0.95-0.16-1.27-0.47
		c-0.23-0.23-0.37-0.56-0.44-1c-0.03-0.23-0.05-0.62-0.05-1.19c0-0.57,0.02-0.97,0.05-1.19c0.06-0.44,0.21-0.77,0.44-1
		c0.32-0.32,0.74-0.47,1.26-0.47c0.48,0,0.87,0.15,1.16,0.44v-2.06h1.59V79.06z M129.57,76.45c0-0.43-0.04-0.73-0.11-0.9
		c-0.1-0.22-0.28-0.33-0.55-0.33c-0.27,0-0.46,0.11-0.55,0.33c-0.07,0.17-0.11,0.47-0.11,0.9c0,0.43,0.04,0.73,0.11,0.9
		c0.1,0.22,0.28,0.33,0.55,0.33c0.27,0,0.46-0.11,0.55-0.33C129.54,77.18,129.57,76.88,129.57,76.45z"/>
	<path class="st0" d="M136.66,76.45c0,0.52-0.04,0.92-0.12,1.21c-0.08,0.29-0.23,0.55-0.45,0.78c-0.41,0.45-0.97,0.67-1.68,0.67
		c-0.7,0-1.26-0.22-1.68-0.67c-0.22-0.23-0.37-0.49-0.45-0.78c-0.08-0.29-0.12-0.69-0.12-1.21c0-0.52,0.04-0.92,0.12-1.21
		c0.08-0.29,0.23-0.55,0.45-0.78c0.41-0.45,0.97-0.67,1.68-0.67c0.7,0,1.26,0.22,1.68,0.67c0.22,0.23,0.37,0.49,0.45,0.78
		C136.62,75.53,136.66,75.94,136.66,76.45z M135.07,76.45c0-0.39-0.02-0.66-0.07-0.8c-0.1-0.28-0.29-0.43-0.59-0.43
		c-0.3,0-0.49,0.14-0.59,0.43c-0.05,0.15-0.07,0.42-0.07,0.8c0,0.39,0.02,0.66,0.07,0.8c0.1,0.28,0.29,0.43,0.59,0.43
		c0.3,0,0.49-0.14,0.59-0.43C135.05,77.11,135.07,76.84,135.07,76.45z"/>
	<path class="st0" d="M142.14,79.06h-1.59v-3.12c0-0.26-0.08-0.46-0.24-0.58c-0.11-0.09-0.24-0.14-0.4-0.14s-0.29,0.05-0.4,0.14
		c-0.16,0.12-0.24,0.32-0.24,0.58v3.12h-1.59v-5.21h1.54v0.43c0.32-0.32,0.73-0.48,1.21-0.48c0.49,0,0.88,0.15,1.18,0.45
		c0.35,0.35,0.53,0.85,0.53,1.49V79.06z"/>
	<path class="st0" d="M147.73,76.97h-3.12c0,0.23,0.08,0.41,0.24,0.56c0.17,0.17,0.39,0.25,0.68,0.25c0.43,0,0.78-0.15,1.08-0.44
		l0.95,0.95c-0.28,0.28-0.57,0.49-0.85,0.61c-0.32,0.14-0.71,0.21-1.17,0.21c-1.65,0-2.48-0.89-2.48-2.66
		c0-0.83,0.22-1.49,0.66-1.98c0.42-0.46,0.98-0.69,1.68-0.69c0.73,0,1.31,0.24,1.74,0.73c0.4,0.45,0.6,1.03,0.6,1.74V76.97z
		 M146.17,75.91c0-0.25-0.07-0.44-0.21-0.59c-0.14-0.15-0.33-0.22-0.57-0.22c-0.34,0-0.57,0.14-0.69,0.41
		c-0.06,0.13-0.09,0.26-0.09,0.41H146.17z"/>
	<path class="st0" d="M152.73,77.35c0,0.58-0.23,1.03-0.68,1.35c-0.4,0.28-0.93,0.42-1.58,0.42c-0.5,0-0.88-0.04-1.16-0.11
		c-0.41-0.11-0.78-0.33-1.1-0.65l1.03-1.03c0.29,0.29,0.72,0.44,1.27,0.44c0.45,0,0.68-0.11,0.68-0.34c0-0.19-0.13-0.3-0.38-0.33
		l-0.81-0.08c-1.01-0.1-1.52-0.6-1.52-1.51c0-0.54,0.22-0.97,0.65-1.3c0.39-0.28,0.86-0.43,1.42-0.43c0.94,0,1.63,0.21,2.05,0.64
		l-0.97,0.98c-0.21-0.21-0.57-0.31-1.1-0.31c-0.34,0-0.51,0.1-0.51,0.3c0,0.17,0.11,0.27,0.34,0.29l0.8,0.08
		c0.52,0.05,0.92,0.23,1.19,0.52C152.61,76.56,152.73,76.91,152.73,77.35z"/>
	<path class="st0" d="M155.35,72.65c0,0.26-0.1,0.49-0.29,0.68c-0.19,0.19-0.42,0.29-0.68,0.29c-0.26,0-0.49-0.1-0.68-0.29
		c-0.19-0.19-0.29-0.42-0.29-0.68c0-0.26,0.09-0.49,0.29-0.68s0.42-0.29,0.68-0.29c0.26,0,0.49,0.1,0.68,0.29
		C155.25,72.15,155.35,72.38,155.35,72.65z M155.17,79.06h-1.59v-5.01h1.59V79.06z"/>
	<path class="st0" d="M160.46,79.06h-1.55v-0.43c-0.32,0.32-0.7,0.47-1.16,0.47c-0.52,0-0.94-0.15-1.24-0.46
		c-0.31-0.31-0.46-0.72-0.46-1.23c0-0.43,0.14-0.77,0.43-1.05c0.32-0.31,0.77-0.46,1.35-0.46h1.06v-0.14c0-0.43-0.26-0.65-0.78-0.65
		c-0.32,0-0.6,0.12-0.83,0.35l-0.99-0.99c0.26-0.26,0.54-0.45,0.81-0.55c0.28-0.1,0.64-0.15,1.08-0.15c1.53,0,2.3,0.63,2.3,1.89
		V79.06z M158.87,77.1v-0.14h-0.8c-0.34,0-0.5,0.14-0.5,0.42c0,0.29,0.17,0.44,0.52,0.44c0.28,0,0.49-0.06,0.63-0.19
		C158.82,77.53,158.87,77.35,158.87,77.1z"/>
</g>
<g>
	<polygon class="st0" points="156.78,35.06 147.31,25.59 147.31,29.4 160.8,42.89 160.8,39.08 157.68,35.96 	"/>
	<polygon class="st0" points="147.31,3.23 147.31,3.31 147.31,13.93 147.31,24.82 156.35,33.87 159.16,36.67 160.8,38.32 
		160.8,36.76 160.8,9.27 160.8,3.23 	"/>
	<polygon class="st0" points="147.31,46.96 147.31,47.72 156.22,56.63 156.79,57.2 157.55,57.2 156.54,56.19 	"/>
	<polygon class="st0" points="151.82,46.12 147.31,41.61 147.31,43.14 149.92,45.76 157.86,53.69 160.8,56.63 160.8,55.11 
		158.27,52.58 	"/>
	<polygon class="st0" points="155.47,39.09 147.31,30.93 147.31,33.98 151.99,38.66 159.49,46.16 160.8,47.47 160.8,44.42 
		159.22,42.84 	"/>
	<polygon class="st0" points="149.95,38.91 147.31,36.27 147.31,38.56 148.17,39.43 156.5,47.75 158.92,50.18 160.8,52.05 
		160.8,50.42 160.8,49.76 159.28,48.24 	"/>
	<polygon class="st0" points="4.87,43.9 4.45,45.01 13.11,53.68 14.93,55.49 15.35,54.38 12.76,51.79 	"/>
	<polygon class="st0" points="6.32,40.02 5.7,41.68 13.07,49.06 16.18,52.16 16.62,51 17.3,51 13.69,47.39 	"/>
	<polygon class="st0" points="3.2,48.34 12.06,57.2 12.82,57.2 3.41,47.79 	"/>
	<polygon class="st0" points="7.78,36.13 6.95,38.35 14.48,45.89 19.59,51 22.65,51 15.68,44.04 	"/>
	<polygon class="st0" points="9.24,32.25 8.2,35.02 16.32,43.15 24.17,51 27.99,51 18.01,41.02 	"/>
	<path class="st0" d="M49.38,46.11c0.1-0.02,0.19-0.04,0.28-0.07l-2.1-5.61l-0.12-0.31L42.22,26.2l-1.51-4.04L36.29,10.4l-2.69-7.16
		h-11.9h-1.59L9.45,31.69l8.92,8.92L28.75,51h1.23h7.12l2.33,6.21h3.69h10.72l-4.18-11.16C49.57,46.07,49.48,46.09,49.38,46.11z
		 M21.99,36.66l4.87-12.99l2.38,6.34l1.77,4.71l1.04,2.79h-3.39h-6.99L21.99,36.66z"/>
	<path class="st0" d="M53.08,44.42c0.13-0.12,0.25-0.25,0.36-0.39l-2.42-2.42v1.53l1.64,1.64l11.86,11.86v-1.53L53.44,44.04
		C53.33,44.17,53.21,44.3,53.08,44.42z"/>
	<polygon class="st0" points="51.02,47.72 60.51,57.2 61.27,57.2 51.02,46.96 	"/>
	<polygon class="st0" points="55.22,35.13 54.15,34.06 52.31,32.22 51.02,30.93 51.02,33.25 51.02,33.98 53.74,36.7 54.37,37.33 
		62.03,44.99 64.51,47.47 64.51,44.42 62.3,42.21 	"/>
	<polygon class="st0" points="57.43,32 55.75,30.32 54.76,29.33 51.02,25.59 51.02,29.4 53.22,31.6 54.24,32.62 55.9,34.28 
		62.63,41.01 64.51,42.89 64.51,39.08 63.75,38.31 	"/>
	<polygon class="st0" points="54.58,39.83 52.54,37.79 51.02,36.27 51.02,38.56 51.23,38.77 54.41,41.95 64.51,52.05 64.51,51.81 
		64.51,49.76 62.4,47.65 	"/>
	<polygon class="st0" points="118.47,56.96 119.07,57.55 120.23,54.9 115.48,50.15 	"/>
	<polygon class="st0" points="92.47,37.82 92.26,39.91 92.82,40.46 104.19,51.83 104.59,52.23 104.64,51.7 104.8,50.15 94.3,39.66 	
		"/>
	<polygon class="st0" points="92.96,32.97 92.68,35.74 95.88,38.95 105,48.07 105.28,45.29 98.13,38.14 	"/>
	<polygon class="st0" points="93.44,28.11 93.09,31.58 99.33,37.82 105.42,43.91 105.77,40.44 102.65,37.32 	"/>
	<path class="st0" d="M145.61,40.62l-2.7-26.96l-0.33-3.33l-0.75-7.45h-1.41h-12.08l-2.31,5.26l-2.99,6.8l-3.2,7.28l-0.95,2.16
		l-2.03-4.63l-2.5-5.69l-1.73-3.94l-3.19-7.25h-6.18h-4.76h-2.54l-1.44,14.44l-0.34,3.36c0.01-0.19,0.01-0.39,0.01-0.58
		c0-0.87-0.07-1.72-0.19-2.55c-1.23-8.1-8.23-14.31-16.67-14.31h-9.99h-1.05H51.02v14.73v3.61v0v3.25l3.89,3.89l1.39,1.39l1.41,1.41
		c0.14-0.26,0.27-0.51,0.4-0.77c-0.13,0.26-0.26,0.52-0.4,0.77l6.31,6.31l0.5,0.5V37v-0.03h0.02h6.79h6
		c8.36,0,15.29-6.08,16.63-14.06l-0.45,4.51l9.89,9.88l2.44,2.44l0.22-2.17l0.72-7.23l4.03,9.18l4.07,9.27l0.03,0.03l0.07,0.07
		l5.49,5.49l3.23-7.36l7.33-16.67l1.54,15.37l1.11,11.15h3.73h9.83l-1.15-11.54L145.61,40.62z M80.71,20.1
		c0,1.86-1.51,3.37-3.37,3.37H64.51v-6.75h12.82C79.2,16.73,80.71,18.24,80.71,20.1z"/>
	<polygon class="st0" points="91.98,42.68 91.84,44.07 100.65,52.87 104.17,56.4 104.31,55.01 101.83,52.52 	"/>
	<polygon class="st0" points="91.5,47.54 91.43,48.23 97.1,53.91 100.05,56.86 100.81,56.86 97.69,53.74 	"/>
</g>
</svg>
